<svg height='100px' width='100px' fill="#68217a" xmlns="http://www.w3.org/2000/svg" version="1.1" x="0px" y="0px"
    viewBox="0 0 100 100" enable-background="new 0 0 100 100">
    <path
        d="M67.519,96.548c-9.544-9.724-14.724-22.301-14.581-35.414c0.141-13.136,5.557-25.875,14.857-34.951l2.34,2.397    c-8.67,8.458-13.717,20.336-13.849,32.589c-0.132,12.217,4.706,23.948,13.622,33.031L67.519,96.548z">
    </path>
    <path
        d="M80.01,84.505c-6.087-5.6-9.638-13.858-9.743-22.659c-0.107-8.98,3.347-17.316,9.725-23.472l2.326,2.41    c-5.707,5.509-8.798,12.974-8.701,21.021c0.094,7.882,3.251,15.258,8.661,20.235L80.01,84.505z">
    </path>
    <path
        d="M31.736,73.296l-2.338-2.396c8.668-8.46,13.716-20.337,13.848-32.588c0.131-12.218-4.707-23.949-13.623-33.033l2.39-2.346    c9.545,9.723,14.723,22.3,14.582,35.415C46.454,51.482,41.038,64.22,31.736,73.296z">
    </path>
    <path
        d="M19.541,61.105l-2.326-2.41c5.707-5.508,8.797-12.973,8.701-21.021c-0.094-7.881-3.251-15.257-8.662-20.235l2.268-2.465    c6.087,5.6,9.638,13.859,9.743,22.66C29.373,46.615,25.919,54.95,19.541,61.105z">
    </path>
    <path
        d="M6.279,44.381c-3.462,0-6.28-2.817-6.28-6.28c0-3.462,2.817-6.28,6.28-6.28c3.463,0,6.28,2.817,6.28,6.28   C12.56,41.564,9.742,44.381,6.279,44.381z M6.279,35.17c-1.616,0-2.931,1.315-2.931,2.931s1.315,2.931,2.931,2.931   s2.931-1.315,2.931-2.931S7.895,35.17,6.279,35.17z">
    </path>
    <path
        d="M93.72,67.706c-3.463,0-6.28-2.817-6.28-6.28s2.817-6.28,6.28-6.28s6.28,2.817,6.28,6.28S97.183,67.706,93.72,67.706z    M93.72,58.495c-1.616,0-2.931,1.314-2.931,2.931c0,1.615,1.314,2.931,2.931,2.931c1.615,0,2.931-1.315,2.931-2.931   C96.65,59.81,95.335,58.495,93.72,58.495z">
    </path>
</svg>